<svg xmlns="http://www.w3.org/2000/svg" viewBox="0 0 511.787 511.787"><path d="M451.305 60.373c-2.56-3.413-5.973-6.827-10.24-7.68l-8.533-2.56c-4.267-.853-8.533-.853-12.8 1.707-3.413 2.56-6.827 5.973-7.68 10.24l-2.326 8.804-8.272-2.282 4.624-16.762c.853-4.267.853-8.533-1.707-12.8-2.56-3.413-5.973-6.827-10.24-7.68l-49.493-13.653c-4.267-.853-8.533-.853-12.8 1.707-4.267 1.707-6.827 5.973-7.68 10.24l-5.832 21.14c-.84.913-1.349 2.11-1.848 3.607l-26.453 98.987c-.853 4.267 1.707 9.387 5.973 10.24l.234.064-15.684 57.963h-4.176V85.12c0-23.893-8.533-47.787-23.04-65.707L240.532 3.2c-3.413-4.267-10.24-4.267-13.653 0l-12.8 16.213c-14.507 17.92-23.04 41.813-23.04 65.707v136.533h-5.851l-39.376-148.48-4.267-16.213c-2.56-11.093-9.387-19.627-19.627-25.6-9.387-5.973-21.333-7.68-32.427-4.267-11.093 2.56-19.627 9.387-25.6 19.627S57.065 68.053 59.625 80l4.267 16.213c.133.267.281.526.434.781l34.125 128.564c-10.879 5.723-18.346 17.143-18.346 30.228 0 15.83 10.921 29.232 25.6 33.046v188.821c0 18.773 15.36 34.133 34.133 34.133h187.733c18.773 0 34.133-15.36 34.133-34.133V288.832c14.679-3.814 25.6-17.216 25.6-33.046 0-18.773-15.36-34.133-34.133-34.133h-1.256l10.886-40.107h1.463c1.707 0 3.413 0 4.267-.853 2.56-.853 3.413-2.56 4.267-5.12l24.263-90.793 8.383 2.312-17.286 65.44c-.853 4.267-.853 8.533 1.707 12.8 2.56 3.413 5.973 6.827 10.24 7.68l8.533 2.56c1.707.853 2.56.853 4.267.853 2.56 0 5.12-.853 8.533-2.56 3.413-2.56 6.827-5.973 7.68-10.24l23.893-90.453c.854-4.265.854-8.532-1.706-12.799zM340.372 33.92l49.493 13.653-4.267 16.213-49.493-13.653 4.267-16.213zm-81.067 59.733v128h-17.067v-128h17.067zm-31.573-64l5.973-7.68 6.827 7.68c10.24 13.653 17.067 29.867 18.773 46.933h-51.2c1.707-17.066 8.533-33.279 19.627-46.933zm-19.627 64h17.067v128h-17.067v-128zm-75.79-7.102l36.537 135.102h-52.907L82.783 100.06l49.532-13.509zM78.398 55.253c3.413-5.973 9.387-10.24 16.213-11.947 1.707-.853 4.267-.853 5.973-.853 5.12 0 9.387.853 12.8 3.413 5.973 3.413 10.24 9.387 11.947 15.36l2.431 8.103L78.226 82.84l-2.388-7.96c-1.706-6.827-.853-13.653 2.56-19.627zM327.572 494.72H139.839c-9.387 0-17.067-7.68-17.067-17.067V289.92h221.867v42.667H199.572c-5.12 0-8.533 3.413-8.533 8.533v102.4c0 5.12 3.413 8.533 8.533 8.533h145.067v25.6c0 9.387-7.681 17.067-17.067 17.067zm17.067-128H233.705c-5.12 0-8.533 3.413-8.533 8.533s3.413 8.533 8.533 8.533h110.933v17.067h-93.867c-5.12 0-8.533 3.413-8.533 8.533s3.413 8.533 8.533 8.533h93.867v17.067H208.105v-85.333h136.533v17.067zm25.6-110.933c0 9.387-7.68 17.067-17.067 17.067H114.239c-9.387 0-17.067-7.68-17.067-17.067 0-7.549 4.972-13.986 11.8-16.22.049.001.098.007.147.007.652 0 .808-.003 1.226-.385a16.908 16.908 0 0 1 3.894-.469h238.935c9.385 0 17.065 7.68 17.065 17.067zm-71.68-34.134l13.616-53.615 33.145 9.039-11.775 44.575h-34.986zm59.792-59.099l-48.699-13.434a7.043 7.043 0 0 0-.797-.21l22.034-82.202 49.532 13.509-22.07 82.337zm54.554-3.194l-8.533-2.56 18.917-71.613c.311-.556.554-1.15.71-1.773.099-.494.147-1 .157-1.509l4.11-15.558 8.533 2.56-23.894 90.453z"/></svg>