<svg xmlns="http://www.w3.org/2000/svg" viewBox="0 0 504.051 504.051"><path d="M16.532 227.193l260.287 260.746c10.265 10.283 26.911 10.283 37.184 0l173.516-173.831c10.273-10.283 10.273-26.967 0-37.249L227.241 16.113c-10.273-10.283-26.919-10.283-37.184 0L16.532 189.943c-10.265 10.283-10.265 26.967 0 37.25" fill="#ffe100"/><path d="M277.502 487.936c10.265 10.283 26.919 10.283 37.184 0l173.524-173.83c10.265-10.283 10.265-26.958 0-37.249l-16.772-16.802c10.265 10.291 10.265 26.967 0 37.249l-173.525 173.83c-10.265 10.283-26.919 10.283-37.184 0l16.773 16.802z" fill="#ffa800"/><path d="M16.532 226.823c-10.265-10.283-10.265-26.967 0-37.249L190.057 15.743c10.265-10.283 26.911-10.283 37.184 0l16.772 16.802c-10.273-10.283-26.919-10.283-37.184 0L33.304 206.375c-10.265 10.283-10.265 26.967 0 37.249l-16.772-16.801z" fill="#fff"/><path d="M279.792 290.659c-36.312-.773-65.554-30.075-66.334-66.442L208.879 8.424c6.65.059 13.284 2.604 18.357 7.695l260.287 260.737c5.074 5.082 7.623 11.736 7.682 18.398l-215.413-4.595z" fill="#fdcc00"/><path d="M126.236 50.405H25.603c-4.629 0-8.386-3.764-8.386-8.401s3.757-8.401 8.386-8.401h100.633c4.629 0 8.386 3.764 8.386 8.401s-3.757 8.401-8.386 8.401m16.772 369.638h-83.86c-4.629 0-8.386-3.764-8.386-8.401 0-4.637 3.757-8.401 8.386-8.401h83.861c4.629 0 8.386 3.764 8.386 8.401-.001 4.637-3.758 8.401-8.387 8.401m58.703 58.806H17.217c-4.629 0-8.386-3.764-8.386-8.401 0-4.637 3.757-8.401 8.386-8.401h184.494c4.629 0 8.386 3.764 8.386 8.401 0 4.637-3.757 8.401-8.386 8.401M50.761 126.013H25.603c-4.629 0-8.386-3.764-8.386-8.401 0-4.637 3.757-8.401 8.386-8.401h25.158c4.629 0 8.386 3.764 8.386 8.401.001 4.637-3.756 8.401-8.386 8.401" fill="#ffe100"/><path d="M217.492 19.144l4.361 204.889c.671 31.974 26.206 57.546 58.116 58.226h.008l204.52 4.36a17.45 17.45 0 0 0-2.902-3.814L221.308 22.059a17.431 17.431 0 0 0-3.816-2.915m277.713 284.503h-.185l-215.405-4.587c-40.932-.874-73.672-33.671-74.535-74.675L200.493 8.601a8.402 8.402 0 0 1 2.415-6.082 8.403 8.403 0 0 1 5.971-2.495h.075c9.166.084 17.77 3.688 24.219 10.157l260.279 260.737c6.449 6.46 10.047 15.071 10.139 24.253a8.442 8.442 0 0 1-2.499 6.057 8.369 8.369 0 0 1-5.887 2.419"/><path d="M19.555 217.433a17.428 17.428 0 0 0 2.91 3.814l260.287 260.754a18.113 18.113 0 0 0 3.807 2.907l-3.95-185.785-2.994-.067c-40.932-.865-73.672-33.671-74.535-74.667l-.067-2.999-185.458-3.957zM295.18 504.029h-.084c-9.158-.084-17.753-3.688-24.202-10.148L10.607 233.135C4.15 226.675.552 218.064.468 208.882a8.42 8.42 0 0 1 2.491-6.057c1.61-1.596 3.681-2.419 6.072-2.419l204.377 4.352c4.495.101 8.109 3.73 8.21 8.224l.235 11.056c.671 31.965 26.206 57.546 58.116 58.218l11.036.235c4.487.101 8.109 3.722 8.21 8.224l4.352 204.737a8.452 8.452 0 0 1-2.424 6.082 8.383 8.383 0 0 1-5.963 2.495zM126.236 42.004H25.603c-4.629 0-8.386-3.764-8.386-8.401s3.757-8.401 8.386-8.401h100.633c4.629 0 8.386 3.764 8.386 8.401s-3.757 8.401-8.386 8.401m16.772 369.638h-83.86c-4.629 0-8.386-3.764-8.386-8.401 0-4.637 3.757-8.401 8.386-8.401h83.861c4.629 0 8.386 3.764 8.386 8.401-.001 4.637-3.758 8.401-8.387 8.401m58.703 58.806H17.217c-4.629 0-8.386-3.764-8.386-8.401 0-4.637 3.757-8.401 8.386-8.401h184.494c4.629 0 8.386 3.764 8.386 8.401 0 4.637-3.757 8.401-8.386 8.401M50.761 117.612H25.603c-4.629 0-8.386-3.764-8.386-8.401 0-4.637 3.757-8.401 8.386-8.401h25.158c4.629 0 8.386 3.764 8.386 8.401.001 4.637-3.756 8.401-8.386 8.401m60.93-14.61c0 4.637-3.757 8.401-8.386 8.401s-8.386-3.764-8.386-8.401c0-4.637 3.757-8.401 8.386-8.401s8.386 3.764 8.386 8.401"/><path d="M295.407 504.051c-9.258 0-17.971-3.612-24.521-10.173L10.607 233.132C4.049 226.571.443 217.851.443 208.568c0-9.275 3.606-18.003 10.164-24.564l63.055-63.174c3.279-3.276 8.587-3.276 11.858 0 3.279 3.285 3.279 8.602 0 11.879l-63.055 63.174a17.821 17.821 0 0 0-5.25 12.685c0 4.788 1.862 9.3 5.25 12.685l260.279 260.746c6.768 6.771 18.558 6.771 25.326 0l173.525-173.831c3.38-3.394 5.241-7.897 5.241-12.685s-1.862-9.3-5.241-12.685L221.308 22.052c-6.768-6.771-18.558-6.771-25.318 0l-63.03 63.141c-3.279 3.276-8.587 3.276-11.858 0-3.279-3.285-3.279-8.602 0-11.879l63.021-63.141C190.673 3.612 199.386 0 208.645 0c9.267 0 17.971 3.612 24.521 10.173l260.287 260.746c6.549 6.561 10.155 15.281 10.155 24.564 0 9.275-3.606 18.003-10.155 24.564L319.928 493.878c-6.55 6.561-15.263 10.173-24.521 10.173"/></svg>